HIERARCHY
ROOT Hips
{
   OFFSET 0.00000 0.00000 0.00000
   CHANNELS 6 Xposition Yposition Zposition Zrotation Xrotation Yrotation
   JOINT RightUpLeg
   {
      OFFSET -8.945800 -8.667070 0.101652
      CHANNELS 3 Zrotation Xrotation Yrotation
      JOINT RightLeg
      {
         OFFSET 0.000000 -44.422697 1.372700
         CHANNELS 3 Zrotation Xrotation Yrotation
         JOINT RightFoot
         {
            OFFSET 0.253549 -42.092399 -1.460590
            CHANNELS 3 Zrotation Xrotation Yrotation
            JOINT RightToes
            {
               OFFSET 0.040000 -4.415090 8.499099
               CHANNELS 3 Zrotation Xrotation Yrotation
               End Site
               {
                  OFFSET -0.080000 -0.137448 9.779790
               }
            }
         }
      }
   }
   JOINT Spine
   {
      OFFSET 0.000000 11.890501 0.000000
      CHANNELS 3 Zrotation Xrotation Yrotation
      JOINT Spine1
      {
         OFFSET 0.000000 25.657401 0.127663
         CHANNELS 3 Zrotation Xrotation Yrotation
         JOINT HEad
         {
            OFFSET 0.000000 8.734161 0.011341
            CHANNELS 3 Zrotation Xrotation Yrotation
            End Site
            {
               OFFSET -0.290000 12.774200 2.513950
            }
         }
         JOINT LeftShoulder1
         {
            OFFSET 8.990000 -0.362252 -0.220000
            CHANNELS 3 Zrotation Xrotation Yrotation
            JOINT LeftArm
            {
               OFFSET 10.282700 -0.003380 0.322123
               CHANNELS 3 Zrotation Xrotation Yrotation
               JOINT LeftForeArm
               {
                  OFFSET 32.766900 0.099144 -1.424340
                  CHANNELS 3 Zrotation Xrotation Yrotation
                  JOINT LeftHand
                  {
                     OFFSET 27.564301 0.085362 1.022160
                     CHANNELS 3 Zrotation Xrotation Yrotation
                     End Site
                     {
                        OFFSET 16.744301 -0.600000 1.502910
                     }
                  }
               }
            }
         }
         JOINT RightShoulder
         {
            OFFSET -8.990000 -0.362252 -0.220000
            CHANNELS 3 Zrotation Xrotation Yrotation
            JOINT RightArm
            {
               OFFSET -10.282700 -0.003380 0.322123
               CHANNELS 3 Zrotation Xrotation Yrotation
               JOINT RightForeArm
               {
                  OFFSET -32.897098 0.099144 -1.424340
                  CHANNELS 3 Zrotation Xrotation Yrotation
                  JOINT RightHand
                  {
                     OFFSET -27.492101 0.085362 1.022160
                     CHANNELS 3 Zrotation Xrotation Yrotation
                     End Site
                     {
                        OFFSET -16.631201 -0.600000 1.502910
                     }
                  }
               }
            }
         }
      }
   }
   JOINT LeftUpLeg
   {
      OFFSET 8.945800 -8.667070 0.101652
      CHANNELS 3 Zrotation Xrotation Yrotation
      JOINT LeftLeg
      {
         OFFSET 0.000000 -44.422697 1.372700
         CHANNELS 3 Zrotation Xrotation Yrotation
         JOINT LeftFoot
         {
            OFFSET -0.253549 -42.092399 -1.460590
            CHANNELS 3 Zrotation Xrotation Yrotation
            JOINT LeftToes
            {
               OFFSET -0.040000 -4.415090 8.499099
               CHANNELS 3 Zrotation Xrotation Yrotation
               End Site
               {
                  OFFSET 0.080000 -0.047448 9.779790
               }
            }
         }
      }
   }
}
MOTION
Frames: 12
Frame Time: 0.016667
-854.182803 103.890322 453.933442 -23.570407 6.805759 -111.572554 -48.680910 -0.495853 59.663984 86.876045 -0.707317 -64.319973 -5.728435 13.795525 -11.722819 6.239441 -0.807500 -0.521178 -9.585579 17.851365 -2.529986 -13.380914 45.038653 19.336252 30.901367 -45.404410 -34.254669 -23.608672 -27.357672 -52.918605 32.538427 10.374213 -51.021011 -53.708148 -54.832291 -90.186030 -55.411925 -26.630226 -52.935551 52.159679 174.681323 -26.045565 92.775614 25.584890 312.173058 12.989242 61.253485 32.269990 6.158238 0.492096 22.099861 -6.837296 -2.458637 -124.689283 -6.770244 -20.187792 115.975465 45.881311 44.068281 4.236584 -2.810416 19.073875 12.718138
-853.559481 103.930100 453.694718 -21.354250 5.462295 -109.173327 -48.372865 -0.748869 60.009243 86.679793 -3.223208 -59.950934 -4.728323 14.117920 -12.252916 6.255555 0.236819 -0.963192 -9.849269 18.476078 1.254152 -13.986131 44.447620 21.667172 30.093346 -47.064542 -34.739011 -24.365899 -31.008673 -53.930279 27.653155 6.396565 -55.931565 -55.053135 -47.575727 -87.596623 -51.511634 -24.928531 -55.034321 59.428042 172.093760 -21.610078 88.799030 16.525327 312.874409 13.623580 64.323709 32.993212 7.776447 0.789539 22.694687 -6.014656 -4.740149 -123.104461 -5.973836 -20.692225 114.374420 43.712623 43.020817 5.251388 -2.602060 18.602824 13.458328
-854.894473 103.711213 452.532571 -20.519080 4.977814 -107.728032 -46.958329 0.091021 59.680028 83.928039 -5.060873 -60.489999 -3.626923 11.384524 -9.508561 6.256184 1.268831 -1.867209 -10.432727 17.369308 1.803187 -13.780808 43.588174 22.864391 29.136385 -47.981488 -35.212473 -26.289127 -33.616347 -54.147636 23.051542 4.510055 -58.195022 -55.854176 -42.518740 -86.540157 -52.361309 -30.914628 -52.660171 61.627731 167.022058 -22.435023 89.790862 18.347408 310.243994 14.421461 65.048864 34.506525 7.858259 0.422317 22.602812 -5.237815 -5.654733 -121.392624 -8.184706 -22.641362 115.231630 40.904914 38.219942 8.132845 -2.358719 17.971257 14.423452
-856.332766 103.467997 451.425546 -20.120279 4.159510 -105.988813 -45.288280 1.182269 57.679090 79.195839 -5.472447 -60.714733 -1.072128 9.066428 -6.974295 6.266281 3.380384 -3.014476 -10.951656 16.337741 1.137349 -13.813950 43.795668 24.214207 28.611524 -47.301741 -35.851755 -28.108774 -34.743472 -54.726177 19.467511 4.821031 -59.324557 -56.686909 -38.745273 -86.278444 -50.045786 -28.064113 -53.244921 65.355942 161.127660 -23.415203 91.712509 19.888314 304.545813 14.347337 65.487512 35.063203 8.471262 0.384797 23.337245 -4.140968 -5.785042 -119.633564 -8.865467 -25.095805 115.973539 37.410596 33.938397 9.900050 -2.158559 17.306603 15.362255
-857.859484 103.296173 450.388024 -19.800554 3.387937 -103.784431 -42.638880 2.542818 54.797324 73.362078 -3.349554 -54.798375 2.299480 7.687071 -8.529962 6.237407 4.405427 -3.615810 -11.417023 15.487406 0.237897 -15.358944 43.368593 26.178179 28.367644 -44.568033 -36.432741 -30.397528 -35.505758 -55.064893 18.139866 5.621789 -60.049876 -57.520588 -35.320776 -86.680189 -50.529039 -30.116162 -51.550163 69.279961 153.648479 -24.818915 94.530522 21.297957 296.972008 14.034706 66.058099 35.161483 8.648184 0.377035 23.546119 -2.916092 -5.337555 -118.149241 -9.494284 -27.801260 116.397693 34.340139 28.760096 11.885210 -1.913173 16.373399 16.380501
-859.559924 103.129509 449.325860 -19.972119 3.369843 -101.802890 -38.962695 2.394647 51.331091 71.935860 1.762260 -53.158693 5.069711 6.246988 -8.300421 6.179851 4.751747 -3.693664 -11.500415 14.995631 -2.056008 -16.137778 42.736405 28.725829 28.613396 -39.591926 -36.869849 -33.685287 -34.785412 -56.955933 17.671110 7.715147 -60.887810 -57.691548 -38.282971 -87.322138 -51.353932 -23.669700 -50.422492 73.617131 145.227348 -26.709323 97.504249 21.964399 286.966163 13.768831 66.366605 35.302273 9.085165 0.450505 24.217049 -1.405315 -4.311018 -117.208177 -10.871032 -30.061391 117.028584 31.407064 22.942076 13.906806 -1.700116 15.397774 17.297823
-861.485430 103.148106 448.274911 -22.460599 6.328539 -98.188184 -33.813678 3.543088 46.977020 73.845376 8.770123 -53.499465 9.251863 5.594865 -7.346777 6.139725 4.906618 -2.935409 -10.806169 15.320657 -7.280724 -15.799734 42.281429 31.732639 29.558767 -32.422853 -37.152572 -37.679650 -32.981679 -60.174615 17.853513 11.141797 -62.166142 -56.238729 -40.267032 -85.936286 -52.217274 -22.576079 -48.828753 78.193522 135.618652 -28.856863 100.484978 21.945712 274.547705 12.389027 66.373278 34.190759 9.042656 0.307581 24.653961 2.139001 -0.704876 -118.485737 -13.330619 -31.881376 117.758882 28.479268 16.492994 15.833862 -1.598911 14.671545 17.898914
-863.635699 103.383730 447.215646 -26.010776 9.886331 -93.949908 -28.704071 4.917255 41.124115 75.433873 15.693818 -54.191059 12.740789 6.408052 -6.767997 6.071481 5.429409 -2.217265 -8.036286 17.370254 -13.378746 -15.904399 42.564250 35.954205 30.826683 -23.770395 -37.286085 -42.925188 -30.326279 -61.473977 18.211661 14.834572 -63.808884 -54.623311 -40.733882 -85.030227 -51.008987 -19.913131 -49.108900 82.578524 124.454584 -31.687792 103.820228 21.243628 262.298771 11.416680 66.065073 33.587008 9.290111 -0.058059 26.784863 6.250509 3.772289 -122.114439 -16.010875 -33.028012 118.169663 24.698691 10.206786 16.662491 -1.658325 14.228367 18.040553
-865.986849 103.785780 446.080430 -30.691346 12.804305 -87.410213 -24.658194 5.618997 33.579997 77.702377 21.607817 -57.207168 12.327250 7.303346 -7.270304 5.963062 6.335691 -1.804575 -4.252451 19.853786 -21.085588 -15.590767 40.743537 40.529950 31.453550 -15.328708 -37.320225 -47.990593 -26.940981 -62.460420 18.605147 19.692701 -65.130765 -53.418978 -39.972849 -84.755667 -51.330890 -19.172667 -50.416338 85.945643 112.945511 -34.549747 107.095734 20.666855 249.640955 11.608806 65.591761 34.134693 9.628756 -0.753754 31.371752 12.140751 8.658265 -126.909778 -17.579447 -35.125890 117.896209 20.285344 3.626670 16.691691 -1.548661 13.130116 18.322795
-868.412768 104.128006 444.989846 -35.833027 16.067441 -80.922770 -21.006264 4.646443 26.226992 80.507529 27.434602 -61.644418 12.834642 9.701276 -7.389998 5.908489 8.039188 -0.809645 -1.601557 20.784923 -28.896854 -14.446250 40.116768 45.354898 32.015313 -6.684874 -37.333309 -53.360744 -22.911376 -61.532505 18.242052 24.646507 -65.951152 -52.143881 -39.545819 -84.465896 -50.394242 -17.648410 -53.722709 89.297934 101.486243 -37.797577 111.416067 19.226066 235.880446 11.212638 65.009508 34.414834 9.871514 -1.471887 34.078676 18.894842 12.389857 -132.677067 -20.534574 -36.338355 117.481672 14.776459 -1.040274 15.359543 -1.742499 12.969426 18.085528
-870.928561 104.392689 443.882974 -41.000704 18.659648 -75.003284 -20.645944 1.466774 18.300230 85.001240 32.400710 -68.033691 12.168060 13.878232 -7.797018 5.758652 10.489338 -0.414308 1.008605 20.929388 -36.399017 -12.506512 38.972755 50.297697 32.085876 1.870713 -37.326963 -58.004350 -18.374133 -59.177244 17.563090 29.889461 -66.092107 -50.039571 -39.293597 -83.806039 -50.154223 -17.261310 -55.782292 91.105421 90.041994 -41.439379 114.736892 17.685854 221.809806 11.435974 64.481193 35.769786 10.702020 -1.797150 37.871876 26.684683 15.024015 -138.093270 -22.699905 -38.282145 116.569391 9.081163 -6.470199 13.749616 -1.818287 12.319645 17.951279
-873.623644 104.276017 442.689508 -45.624602 20.576449 -69.579021 -23.339716 -2.378156 9.996468 91.757041 36.302879 -76.332179 11.833054 15.800087 -8.441440 5.496471 12.208068 -0.661958 3.756085 20.505515 -44.425664 -9.967544 39.036317 54.156713 32.016723 10.068396 -37.416832 -60.842123 -14.403645 -55.401290 17.558687 34.601513 -65.863740 -48.311007 -38.942962 -82.119549 -48.750728 -16.995927 -58.627004 90.453739 77.876014 -46.932876 117.470033 15.108151 207.829829 11.710715 64.823666 36.510442 11.577196 -1.985837 42.347788 34.664122 17.087993 -142.445767 -23.541275 -39.771403 116.930011 3.091223 -10.083349 12.860695 -1.969990 12.489589 18.249166
